<svg  fill="none" xmlns="http://www.w3.org/2000/svg">
<path d="M19 29.4167C19.5903 29.4167 20.0854 29.2167 20.4854 28.8167C20.884 28.4181 21.0833 27.9236 21.0833 27.3333V21.0833H27.3333C27.9236 21.0833 28.4181 20.8833 28.8167 20.4833C29.2167 20.0847 29.4167 19.5903 29.4167 19C29.4167 18.4097 29.2167 17.9146 28.8167 17.5146C28.4181 17.116 27.9236 16.9167 27.3333 16.9167H21.0833V10.6667C21.0833 10.0764 20.884 9.58125 20.4854 9.18125C20.0854 8.78264 19.5903 8.58333 19 8.58333C18.4097 8.58333 17.9153 8.78264 17.5167 9.18125C17.1167 9.58125 16.9167 10.0764 16.9167 10.6667V16.9167H10.6667C10.0764 16.9167 9.58125 17.116 9.18125 17.5146C8.78264 17.9146 8.58333 18.4097 8.58333 19C8.58333 19.5903 8.78264 20.0847 9.18125 20.4833C9.58125 20.8833 10.0764 21.0833 10.6667 21.0833H16.9167V27.3333C16.9167 27.9236 17.1167 28.4181 17.5167 28.8167C17.9153 29.2167 18.4097 29.4167 19 29.4167ZM4.41667 37.75C3.27083 37.75 2.28958 37.3424 1.47292 36.5271C0.657639 35.7104 0.25 34.7292 0.25 33.5833V4.41667C0.25 3.27083 0.657639 2.28958 1.47292 1.47292C2.28958 0.657639 3.27083 0.25 4.41667 0.25H33.5833C34.7292 0.25 35.7104 0.657639 36.5271 1.47292C37.3424 2.28958 37.75 3.27083 37.75 4.41667V33.5833C37.75 34.7292 37.3424 35.7104 36.5271 36.5271C35.7104 37.3424 34.7292 37.75 33.5833 37.75H4.41667Z" fill="black"/>
</svg>
