<svg  fill="none" xmlns="http://www.w3.org/2000/svg">
<path d="M6 8L8 6L6 4L5.3 4.7L6.1 5.5H4V6.5H6.1L5.3 7.3L6 8ZM6 11C5.30833 11 4.65833 10.8687 4.05 10.606C3.44167 10.3437 2.9125 9.9875 2.4625 9.5375C2.0125 9.0875 1.65633 8.55833 1.394 7.95C1.13133 7.34167 1 6.69167 1 6C1 5.30833 1.13133 4.65833 1.394 4.05C1.65633 3.44167 2.0125 2.9125 2.4625 2.4625C2.9125 2.0125 3.44167 1.65617 4.05 1.3935C4.65833 1.13117 5.30833 1 6 1C6.69167 1 7.34167 1.13117 7.95 1.3935C8.55833 1.65617 9.0875 2.0125 9.5375 2.4625C9.9875 2.9125 10.3437 3.44167 10.606 4.05C10.8687 4.65833 11 5.30833 11 6C11 6.69167 10.8687 7.34167 10.606 7.95C10.3437 8.55833 9.9875 9.0875 9.5375 9.5375C9.0875 9.9875 8.55833 10.3437 7.95 10.606C7.34167 10.8687 6.69167 11 6 11Z" />
</svg>
