<svg  fill="none" xmlns="http://www.w3.org/2000/svg">
<path d="M16.3274 0.73575C15.8084 -0.24525 14.1944 -0.24525 13.6754 0.73575L0.175403 26.2357C0.0538781 26.4643 -0.0063686 26.7204 0.000532785 26.9792C0.00743417 27.238 0.0812482 27.4905 0.214783 27.7123C0.348318 27.934 0.537019 28.1174 0.762499 28.2446C0.987979 28.3717 1.24255 28.4383 1.5014 28.4377H28.5014C28.7601 28.4383 29.0145 28.3718 29.2398 28.2447C29.4651 28.1177 29.6537 27.9344 29.7871 27.7128C29.9205 27.4911 29.9942 27.2387 30.001 26.9801C30.0078 26.7215 29.9475 26.4656 29.8259 26.2373L16.3274 0.73575ZM16.5014 23.9377H13.5014V20.9377H16.5014V23.9377ZM13.5014 17.9377V10.4377H16.5014L16.5029 17.9377H13.5014Z" fill="black"/>
</svg>
