<svg width="36" height="36" viewBox="0 0 36 36" fill="none" xmlns="http://www.w3.org/2000/svg">
<path d="M12 25.5H15V24H16.5C16.925 24 17.2815 23.856 17.5695 23.568C17.8565 23.281 18 22.925 18 22.5V18C18 17.575 17.8565 17.2185 17.5695 16.9305C17.2815 16.6435 16.925 16.5 16.5 16.5H12V15H18V12H15V10.5H12V12H10.5C10.075 12 9.7185 12.1435 9.4305 12.4305C9.1435 12.7185 9 13.075 9 13.5V18C9 18.425 9.1435 18.781 9.4305 19.068C9.7185 19.356 10.075 19.5 10.5 19.5H15V21H9V24H12V25.5ZM24 24.375L27 21.375H21L24 24.375ZM21 15H27L24 12L21 15ZM6 30C5.175 30 4.469 29.7065 3.882 29.1195C3.294 28.5315 3 27.825 3 27V9C3 8.175 3.294 7.469 3.882 6.882C4.469 6.294 5.175 6 6 6H30C30.825 6 31.5315 6.294 32.1195 6.882C32.7065 7.469 33 8.175 33 9V27C33 27.825 32.7065 28.5315 32.1195 29.1195C31.5315 29.7065 30.825 30 30 30H6Z" fill="black"/>
</svg>
