<svg  fill="none" xmlns="http://www.w3.org/2000/svg">
<path d="M7.5 11H16.5V8C16.5 6.75 16.0625 5.6875 15.1875 4.8125C14.3125 3.9375 13.25 3.5 12 3.5C10.75 3.5 9.6875 3.9375 8.8125 4.8125C7.9375 5.6875 7.5 6.75 7.5 8V11ZM21 33.5C18.925 33.5 17.1565 32.769 15.6945 31.307C14.2315 29.844 13.5 28.075 13.5 26C13.5 23.925 14.2315 22.156 15.6945 20.693C17.1565 19.231 18.925 18.5 21 18.5C23.075 18.5 24.844 19.231 26.307 20.693C27.769 22.156 28.5 23.925 28.5 26C28.5 28.075 27.769 29.844 26.307 31.307C24.844 32.769 23.075 33.5 21 33.5ZM22.95 29C23.1 29.15 23.275 29.225 23.475 29.225C23.675 29.225 23.85 29.15 24 29C24.15 28.85 24.225 28.675 24.225 28.475C24.225 28.275 24.15 28.1 24 27.95L21.75 25.7V22.25C21.75 22.05 21.675 21.875 21.525 21.725C21.375 21.575 21.2 21.5 21 21.5C20.8 21.5 20.625 21.575 20.475 21.725C20.325 21.875 20.25 22.05 20.25 22.25V26C20.25 26.05 20.325 26.225 20.475 26.525L22.95 29ZM3 32C2.175 32 1.469 31.7065 0.882 31.1195C0.294 30.5315 0 29.825 0 29V14C0 13.175 0.294 12.4685 0.882 11.8805C1.469 11.2935 2.175 11 3 11H4.5V8C4.5 5.925 5.2315 4.156 6.6945 2.693C8.1565 1.231 9.925 0.5 12 0.5C14.075 0.5 15.844 1.231 17.307 2.693C18.769 4.156 19.5 5.925 19.5 8V11H21C21.825 11 22.5315 11.2935 23.1195 11.8805C23.7065 12.4685 24 13.175 24 14V15.95C23.5 15.775 23 15.656 22.5 15.593C22 15.531 21.5 15.5 21 15.5C18.075 15.5 15.594 16.5185 13.557 18.5555C11.519 20.5935 10.5 23.075 10.5 26C10.5 27.075 10.669 28.1185 11.007 29.1305C11.344 30.1435 11.8 31.1 12.375 32H3Z" />
</svg>
