<svg  fill="none" xmlns="http://www.w3.org/2000/svg">
<path d="M9.47368 12.4233H20.8421V9.05125C20.8421 7.64624 20.2895 6.45198 19.1842 5.46847C18.0789 4.48497 16.7368 3.99321 15.1579 3.99321C13.5789 3.99321 12.2368 4.48497 11.1316 5.46847C10.0263 6.45198 9.47368 7.64624 9.47368 9.05125V12.4233ZM26.5263 37.7135C23.9053 37.7135 21.6714 36.8918 19.8246 35.2485C17.9766 33.6041 17.0526 31.6157 17.0526 29.2834C17.0526 26.9511 17.9766 24.9627 19.8246 23.3183C21.6714 21.675 23.9053 20.8533 26.5263 20.8533C29.1474 20.8533 31.3819 21.675 33.2299 23.3183C35.0766 24.9627 36 26.9511 36 29.2834C36 31.6157 35.0766 33.6041 33.2299 35.2485C31.3819 36.8918 29.1474 37.7135 26.5263 37.7135ZM29.6526 33.2455L30.9789 32.0653L27.4737 28.9462V24.2254H25.5789V29.6206L29.6526 33.2455ZM15.6316 36.0275H3.78947C2.74737 36.0275 1.85558 35.6976 1.1141 35.0378C0.371368 34.3769 0 33.5827 0 32.6554V15.7953C0 14.868 0.371368 14.0739 1.1141 13.413C1.85558 12.7532 2.74737 12.4233 3.78947 12.4233H5.68421V9.05125C5.68421 6.71893 6.60821 4.73056 8.45621 3.08614C10.3029 1.44284 12.5368 0.621185 15.1579 0.621185C17.7789 0.621185 20.0135 1.44284 21.8615 3.08614C23.7082 4.73056 24.6316 6.71893 24.6316 9.05125V12.4233H26.5263C27.5684 12.4233 28.4608 12.7532 29.2036 13.413C29.9451 14.0739 30.3158 14.868 30.3158 15.7953V17.9871C29.6842 17.7904 29.0526 17.6567 28.4211 17.5858C27.7895 17.5162 27.1579 17.4813 26.5263 17.4813C22.8316 17.4813 19.6977 18.6261 17.1246 20.9157C14.5503 23.2065 13.2632 25.9957 13.2632 29.2834C13.2632 30.4917 13.4766 31.6646 13.9036 32.8021C14.3293 33.9407 14.9053 35.0159 15.6316 36.0275Z" />
</svg>
