<svg width="36" height="36" viewBox="0 0 36 36" fill="none" xmlns="http://www.w3.org/2000/svg">
<path d="M9 33C8.175 33 7.469 32.7065 6.882 32.1195C6.294 31.5315 6 30.825 6 30V15C6 14.175 6.294 13.4685 6.882 12.8805C7.469 12.2935 8.175 12 9 12H22.5V9C22.5 7.75 22.0625 6.6875 21.1875 5.8125C20.3125 4.9375 19.25 4.5 18 4.5C16.975 4.5 16.069 4.806 15.282 5.418C14.494 6.031 13.9625 6.8 13.6875 7.725C13.5625 8.1 13.369 8.406 13.107 8.643C12.844 8.881 12.5375 9 12.1875 9C11.6875 9 11.2875 8.831 10.9875 8.493C10.6875 8.156 10.5875 7.775 10.6875 7.35C11.0625 5.675 11.925 4.281 13.275 3.168C14.625 2.056 16.2 1.5 18 1.5C20.075 1.5 21.844 2.231 23.307 3.693C24.769 5.156 25.5 6.925 25.5 9V12H27C27.825 12 28.5315 12.2935 29.1195 12.8805C29.7065 13.4685 30 14.175 30 15V30C30 30.825 29.7065 31.5315 29.1195 32.1195C28.5315 32.7065 27.825 33 27 33H9ZM18 25.5C18.825 25.5 19.5315 25.2065 20.1195 24.6195C20.7065 24.0315 21 23.325 21 22.5C21 21.675 20.7065 20.9685 20.1195 20.3805C19.5315 19.7935 18.825 19.5 18 19.5C17.175 19.5 16.469 19.7935 15.882 20.3805C15.294 20.9685 15 21.675 15 22.5C15 23.325 15.294 24.0315 15.882 24.6195C16.469 25.2065 17.175 25.5 18 25.5Z" fill="black"/>
</svg>
